<?xml version="1.0" encoding="UTF-8"?><svg id="uuid-6ebaba77-5f11-4b12-9c88-283443502e22" xmlns="http://www.w3.org/2000/svg" viewBox="0 0 225.5 73.06"><g id="uuid-eb348ec0-338f-461a-bf6a-d745bd6b20d9"><path d="M26.92,55.4v-7.65h-9.82v7.65H2.97v-30.97C2.97,9.01,5.8,3.73,18.89,3.73h5.5c13.09,0,16.56,5.29,16.56,20.71v30.97h-14.03ZM26.92,24.44c0-3.23-.4-4.17-2.68-4.17h-4.51c-2.23,0-2.63.93-2.63,4.17v7.15h9.82v-7.15Z" fill="#9e78d3" stroke-width="0"/><path d="M74.22,55.34h-26.87V4.6h25.58c8.68,0,13.44,2.74,13.44,13.87v1.68c0,2.74-1.04,5.97-3.42,8.58,2.92,2.49,4.36,6.09,4.36,10.26v1.62c0,8.15-2.97,14.74-13.09,14.74ZM70.85,21.51c0-.87-.55-1.62-1.69-1.62h-7.19v4.1h6.94c.99,0,1.93-.93,1.93-1.8v-.68ZM71.64,36.44c0-1-.5-1.55-1.59-1.55h-8.08v4.73h7.68c1.44,0,1.98-.62,1.98-1.74v-1.43Z" fill="#9e78d3" stroke-width="0"/><path d="M116.22,55.65h-5.21c-14.28,0-17.6-4.73-17.6-21.83v-7.65c0-17.04,3.32-21.82,17.6-21.82h5.21c13.24,0,17.8,4.79,17.8,21.82v7.65c0,17.1-3.57,21.83-17.8,21.83ZM119.24,26.49c0-3.54-1.04-5.84-4.66-5.84h-1.93c-2.93,0-4.66,1.43-4.66,5.84v6.72c0,4.35,1.04,5.91,4.66,5.91h1.93c3.62,0,4.66-2.43,4.66-5.91v-6.72Z" fill="#9e78d3" stroke-width="0"/><path d="M161.98,55.4h-4.91c-12.99,0-17.5-8.46-17.5-19.71V4.66h14.72v29.41c0,3.11,1.29,4.6,3.42,4.6h3.52c2.38,0,3.62-1.68,3.62-4.6V4.66h14.77v31.03c0,11.25-4.61,19.71-17.65,19.71Z" fill="#9e78d3" stroke-width="0"/><path d="M212.01,21.2v34.2h-15.12V21.2h-12.64V4.66h39.71v16.54h-11.95Z" fill="#9e78d3" stroke-width="0"/></g></svg>