<?xml version="1.0" encoding="UTF-8"?><svg id="uuid-fa350d45-337f-4a98-9661-cba6dbf3ea32" xmlns="http://www.w3.org/2000/svg" viewBox="0 0 385.45 179"><g id="uuid-a8712aea-d890-4e24-b1dd-486b9357ebec"><circle cx="217.18" cy="89.5" r="89.5" fill="#fff8ff" stroke-width="0"/><path d="M37.13,65.37c-6.4,0-9.77-5.47-11.9-12.62l-4.76-15.98c-.1-.56-.25-.75-.4-.75-.2,0-.3.25-.3.81v27.98H6.1V29.12c0-10.2,4.81-15.36,11.5-15.36,7.14,0,9.87,5.47,11.25,10.51l4.96,17.97c.1.68.2.87.5.87.2,0,.4-.19.4-.87V14.2h13.73v35.5c0,10.88-4.31,15.67-11.3,15.67Z" fill="#5d53b4" stroke-width="0"/><path d="M55.78,64.81V14.07h15.27v50.74h-15.27Z" fill="#5d53b4" stroke-width="0"/><path d="M102.68,64.81v-10.51c0-3.86-1.59-5.91-4.61-5.91h-4.56v16.42h-14.77V14.07h14.77v18.47h3.82c2.63,0,4.46-2.24,4.46-6.34v-12.12h14.77v14.49c0,4.23-1.29,7.83-3.37,10.69,2.68,2.8,4.31,6.9,4.31,12.31v13.24h-14.82Z" fill="#5d53b4" stroke-width="0"/><path d="M148.1,64.81v-10.51c0-3.86-1.59-5.91-4.61-5.91h-4.56v16.42h-14.77V14.07h14.77v18.47h3.82c2.63,0,4.46-2.24,4.46-6.34v-12.12h14.77v14.49c0,4.23-1.29,7.83-3.37,10.69,2.68,2.8,4.31,6.9,4.31,12.31v13.24h-14.82Z" fill="#5d53b4" stroke-width="0"/><path d="M170.51,64.81V14.07h15.27v50.74h-15.27Z" fill="#5d53b4" stroke-width="0"/><path d="M29.1,137.36h-10.96v10.38H3.42v-50.74h25.78c8.18,0,13.73,4.97,13.73,18.47v4.04c0,10.63-4.16,17.85-13.83,17.85ZM28.11,117.02c0-3.05-.79-3.42-2.97-3.42h-6.99v6.96h6.99c2.13,0,2.97-.75,2.97-2.98v-.56Z" fill="#5d53b4" stroke-width="0"/><path d="M71.59,147.99h-5.21c-14.28,0-17.6-4.73-17.6-21.83v-7.65c0-17.04,3.32-21.82,17.6-21.82h5.21c13.24,0,17.8,4.79,17.8,21.82v7.65c0,17.1-3.57,21.83-17.8,21.83ZM74.62,118.83c0-3.54-1.04-5.84-4.66-5.84h-1.93c-2.92,0-4.66,1.43-4.66,5.84v6.72c0,4.35,1.04,5.91,4.66,5.91h1.93c3.62,0,4.66-2.43,4.66-5.91v-6.72Z" fill="#9e78d3" stroke-width="0"/><path d="M119.29,147.74v-9.2c0-2.55-.89-3.67-2.97-3.67h-5.7v12.87h-15.12v-50.74h25.09c8.58,0,13.68,3.98,13.68,17.97v2.98c0,4.04-.94,7.21-2.68,9.58,2.03,1.93,2.78,4.97,2.78,9.33v10.88h-15.07ZM119.54,117.02c0-2.42-.79-3.3-2.97-3.3h-5.95v6.72h5.95c2.23,0,2.97-1.31,2.97-2.86v-.56Z" fill="#5d53b4" stroke-width="0"/><path d="M167.34,113.54v34.2h-15.12v-34.2h-12.64v-16.54h39.71v16.54h-11.95Z" fill="#5d53b4" stroke-width="0"/><path d="M202.19,113.73c-3.02,0-3.62,1.31-3.62,4.79v.5h22.66v14.55h-22.66v14.18h-14.77v-28.91c0-14.67,4.91-21.83,15.32-21.83h23.3v16.73h-20.23Z" fill="#5d53b4" stroke-width="0"/><path d="M250.68,147.99h-5.21c-14.28,0-17.6-4.73-17.6-21.83v-7.65c0-17.04,3.32-21.82,17.6-21.82h5.21c13.24,0,17.8,4.79,17.8,21.82v7.65c0,17.1-3.57,21.83-17.8,21.83ZM253.71,118.83c0-3.54-1.04-5.84-4.66-5.84h-1.93c-2.92,0-4.66,1.43-4.66,5.84v6.72c0,4.35,1.04,5.91,4.66,5.91h1.93c3.62,0,4.66-2.43,4.66-5.91v-6.72Z" fill="#9e78d3" stroke-width="0"/><path d="M290.1,147.74c-10.71,0-16.01-6.53-16.01-18.78v-31.96h15.22v29.78c0,2.49,1.24,4.29,3.72,4.29h19.78v16.66h-22.71Z" fill="#5d53b4" stroke-width="0"/><path d="M320.05,147.74v-50.74h15.27v50.74h-15.27Z" fill="#5d53b4" stroke-width="0"/><path d="M365.02,147.99h-5.21c-14.28,0-17.6-4.73-17.6-21.83v-7.65c0-17.04,3.32-21.82,17.6-21.82h5.21c13.24,0,17.8,4.79,17.8,21.82v7.65c0,17.1-3.57,21.83-17.8,21.83ZM368.04,118.83c0-3.54-1.04-5.84-4.66-5.84h-1.93c-2.92,0-4.66,1.43-4.66,5.84v6.72c0,4.35,1.04,5.91,4.66,5.91h1.93c3.62,0,4.66-2.43,4.66-5.91v-6.72Z" fill="#9e78d3" stroke-width="0"/></g></svg>