<?xml version="1.0" encoding="UTF-8"?><svg id="uuid-ff0a3d07-8255-4f23-9663-925c69215d04" xmlns="http://www.w3.org/2000/svg" viewBox="0 0 230.11 73.06"><g id="uuid-97f2b815-7334-4d2e-b64e-46487d2247ec"><path d="M29.2,55.34h-10.56c-12.1,0-16.91-5.6-16.91-21.27V4.54h13.78v28.85c0,3.73.74,5.04,3.22,5.29V4.54h11.06v34.14c2.33-.19,3.17-1.24,3.17-5.29V4.54h13.68v29.54c0,14.74-5.4,21.27-17.45,21.27Z" fill="#5d53b4" stroke-width="0"/><path d="M73.82,55.65h-5.21c-14.28,0-17.6-4.73-17.6-21.83v-7.65c0-17.04,3.32-21.83,17.6-21.83h5.21c13.24,0,17.8,4.79,17.8,21.83v7.65c0,17.1-3.57,21.83-17.8,21.83ZM76.85,26.49c0-3.54-1.04-5.84-4.66-5.84h-1.93c-2.92,0-4.66,1.43-4.66,5.84v6.72c0,4.35,1.04,5.91,4.66,5.91h1.93c3.62,0,4.66-2.43,4.66-5.91v-6.72Z" fill="#5d53b4" stroke-width="0"/><path d="M121.52,55.4v-9.2c0-2.55-.89-3.67-2.98-3.67h-5.7v12.87h-15.12V4.66h25.09c8.58,0,13.68,3.98,13.68,17.97v2.98c0,4.04-.94,7.21-2.68,9.58,2.03,1.93,2.78,4.97,2.78,9.33v10.88h-15.07ZM121.77,24.68c0-2.42-.79-3.3-2.97-3.3h-5.95v6.72h5.95c2.23,0,2.97-1.31,2.97-2.86v-.56Z" fill="#5d53b4" stroke-width="0"/><path d="M167.44,55.4v-10.51c0-3.86-1.59-5.91-4.61-5.91h-4.56v16.42h-14.77V4.66h14.77v18.47h3.82c2.63,0,4.46-2.24,4.46-6.34V4.66h14.77v14.49c0,4.23-1.29,7.83-3.37,10.69,2.68,2.8,4.31,6.9,4.31,12.31v13.24h-14.82Z" fill="#5d53b4" stroke-width="0"/><path d="M214.59,55.34h-26.08v-15.73h23.05c.74,0,.99-.37.99-1.18v-.19c0-.87-.35-1.18-.99-1.18h-9.87c-10.01,0-13.98-5.16-13.98-14.92v-1.8c0-11.32,5.21-15.67,14.08-15.67h23.45v16.1h-20.87c-.79,0-1.14.5-1.14,1.18v.25c0,.75.25,1.37,1.14,1.37h11.01c8.23,0,12.54,5.6,12.54,13.06v3.23c0,8.27-3.67,15.48-13.34,15.48Z" fill="#5d53b4" stroke-width="0"/></g></svg>