<?xml version="1.0" encoding="UTF-8"?><svg id="uuid-3547bb18-6ab8-406b-b898-2267dd55d7b3" xmlns="http://www.w3.org/2000/svg" viewBox="0 0 299.78 90.63"><g id="uuid-3d725635-9f4e-4cbb-959b-fb84a32273e0"><path d="M50.65,74.01c0,1.21-.97,2.12-2.12,2-2.3-.24-4.25-.36-5.64-.36-1.58,0-3.46.12-5.64.36-1.09.12-2.06-.79-2.06-2s.97-2.12,2.06-2c1.27.12,2.73.3,4.12.36l-4-8.98H14.68l-4,8.98c1.4-.06,2.85-.24,4.12-.36,1.09-.12,2.06.79,2.06,2s-.97,2.12-2.06,2c-2.37-.24-4.25-.36-5.64-.36-1.64,0-3.52.12-5.64.36-1.15.12-2.12-.79-2.12-2s.97-2.12,2.12-2c.91.12,2,.18,3.03.3l17.95-40.09c.3-.55.91-.91,1.52-.91s1.15.36,1.46.91l18.01,40.09c1.03-.12,2.06-.18,3.03-.3,1.15-.12,2.12.79,2.12,2ZM16.32,59.75h19.41l-9.7-21.71-9.7,21.71Z" fill="#fff" stroke-width="0"/><path d="M70.78,31.85c13.16,0,22.14,8.86,22.14,21.78,0,13.71-8.43,21.83-22.5,21.83h-8.07c-1.52,0-3.28.24-4.73.49-1.21.18-2.3-.85-2.3-2.12s1.09-2.3,2.3-2.12c.91.12,2,.3,3.03.42v-36.94c-1.03.06-2.12.24-3.03.36-1.21.18-2.3-.79-2.3-2.06s1.09-2.3,2.3-2.12c1.58.18,3.46.48,5.1.48h8.07ZM70.41,71.52c6.85,0,18.62-2.3,18.62-17.89,0-8.13-4.79-17.83-18.26-17.83h-6.13v35.72h5.76Z" fill="#fff" stroke-width="0"/><path d="M115.48,31.85c13.16,0,22.14,8.86,22.14,21.78,0,13.71-8.43,21.83-22.5,21.83h-8.07c-1.52,0-3.28.24-4.73.49-1.21.18-2.3-.85-2.3-2.12s1.09-2.3,2.3-2.12c.91.12,2,.3,3.03.42v-36.94c-1.03.06-2.12.24-3.03.36-1.21.18-2.3-.79-2.3-2.06s1.09-2.3,2.3-2.12c1.58.18,3.46.48,5.09.48h8.07ZM115.11,71.52c6.85,0,18.62-2.3,18.62-17.89,0-8.13-4.79-17.83-18.26-17.83h-6.13v35.72h5.76Z" fill="#fff" stroke-width="0"/><path d="M184.62,74.01c0,1.21-.97,2.12-2.12,2-.36-.06-3.21-.42-5.34-.42-1.39,0-2.61-.67-3.4-1.82l-10.55-16.07h-9.34v14.68c1.4-.06,2.97-.24,4.25-.36,1.09-.12,2.06.79,2.06,2s-.97,2.12-2.06,2c-4.79-.49-6.55-.49-11.28,0-1.15.12-2.12-.79-2.12-2s.97-2.12,2.12-2c.91.12,2,.18,3.03.3v-37.06c-1.03,0-1.94.18-2.85.24-1.21.18-2.3-.73-2.3-2s1.09-2.3,2.3-2.12c1.58.24,3.52.48,5.16.48l11.1.06c10.25.06,16.13,4.79,16.13,12.86,0,6.91-4.25,11.4-11.71,12.62l9.83,14.98c1.7-.06,3.52-.18,4.97-.36,1.15-.12,2.12.79,2.12,2ZM153.87,35.67v18.14h10.07c7.76,0,11.71-3.03,11.71-9.04s-4.06-9.1-11.71-9.1h-10.07Z" fill="#fff" stroke-width="0"/><path d="M220.7,67.09l-.36,5.09c-.12,1.82-1.64,3.28-3.4,3.28h-21.47c-1.58,0-3.21.3-4.67.49-1.27.18-2.37-.79-2.37-2.12s1.09-2.24,2.37-2.06c.73.12,1.58.24,2.43.3v-36.88c-.85.06-1.7.18-2.43.36-1.21.18-2.37-.79-2.37-2.06s1.09-2.3,2.37-2.12c1.58.18,3.46.48,5.03.48h21.11c1.76,0,3.27,1.46,3.4,3.28l.36,5.1c.12,1.21-.91,2.24-2.12,2.24s-2.25-1.03-2.12-2.24c.06-1.4.18-2.91.36-4.43h-19.59v15.04h16.13c1.09,0,1.94.85,1.94,1.94,0,1.03-.85,1.88-1.94,1.88h-16.13v16.86h19.59c-.18-1.58-.3-3.15-.36-4.43-.12-1.21.91-2.24,2.12-2.24s2.24,1.03,2.12,2.24Z" fill="#fff" stroke-width="0"/><path d="M258.61,63.82c0,7.04-6.19,12.19-14.5,12.19-5.82,0-10.86-2.12-14.13-6.07-2.55-2.85-1.52-6.43,1.94-6.67,2.73-.12,4.37,3.03,2.49,5.58,6.73,6.31,20.2,2.91,20.2-5.03,0-10.86-24.56-6.25-23.41-21.53,1.15-16.07,26.93-12.19,26.87-4.12-.06,1.88-1.58,3.4-3.4,3.4-2.73,0-4.25-3.21-2.79-5.03-2.3-1.64-15.89-3.88-16.74,6.07-.91,11.52,23.47,6.19,23.47,21.23Z" fill="#fff" stroke-width="0"/><path d="M296.03,63.82c0,7.04-6.19,12.19-14.5,12.19-5.82,0-10.86-2.12-14.13-6.07-2.55-2.85-1.52-6.43,1.94-6.67,2.73-.12,4.37,3.03,2.49,5.58,6.73,6.31,20.2,2.91,20.2-5.03,0-10.86-24.57-6.25-23.41-21.53,1.15-16.07,26.93-12.19,26.87-4.12-.06,1.88-1.58,3.4-3.4,3.4-2.73,0-4.25-3.21-2.79-5.03-2.3-1.64-15.89-3.88-16.74,6.07-.91,11.52,23.47,6.19,23.47,21.23Z" fill="#fff" stroke-width="0"/><path d="M26.64,9.57c-1.24,1.07-4.07,2.65-6.06,3.51-.34,3.56-2.22,6.26-5.8,8.43-.37.22-.85.07-1.07-.32-.19-.39-.05-.85.34-1.1,4.97-3,5.38-6.75,4.89-9.99-.07-.41.24-.8.66-.83.46-.05.85.29.93.73.05.46.1.92.1,1.36,1.66-.71,4.07-2,5.02-2.87,1.22-1.12.97-2.17-.49-2.14-3.97.1-9.81,1.17-13.76.97-.41-.02-.75-.39-.73-.85.02-.44.37-.75.83-.73,5.26.24,11.15-1,14.12-.85,3.31.15,3.02,3.02,1.02,4.68Z" fill="#ffbf80" stroke-width="0"/><path d="M37.98,10.3c3.21.27,6.21,2.17,8.23,4.29.32.34.32.88,0,1.24-.27.29-.73.29-1.02,0-2.19-2.36-4.43-3.58-7.21-3.99v9.06c0,.46-.37.8-.83.8s-.8-.37-.8-.8V4.38c0-.44.34-.83.8-.83s.83.39.83.83v5.92ZM43.15,6.31c-.19-.19-.22-.49-.02-.66.19-.22.51-.22.71-.02.73.71,1.49,1.7,2.07,2.61.15.22.1.51-.15.68-.22.12-.51.07-.66-.17-.54-.8-1.31-1.78-1.95-2.44ZM47.58,7.84c-.22.15-.51.07-.66-.15-.51-.8-1.27-1.78-1.9-2.39-.17-.2-.17-.49,0-.66.2-.19.51-.19.71,0,.71.71,1.41,1.63,2,2.51.15.22.1.54-.15.68Z" fill="#ffbf80" stroke-width="0"/><path d="M53.91,16.68V5.38c0-.46.37-.83.8-.83.46,0,.83.37.83.83v11.06c0,2.92,1.7,3.26,5.24,1.17,2-1.19,4.33-3.07,6.62-5.36.32-.32.83-.29,1.12.05.32.37.29.9-.07,1.24-2.48,2.41-4.9,4.21-6.89,5.48-4.51,2.83-7.67,1.85-7.65-2.34Z" fill="#ffbf80" stroke-width="0"/><path d="M90.34,21.45c-.32.27-.8.2-1.07-.17-1.68-2.36-4.36-4.51-6.79-5.46-2.07,2-4.82,4.02-8.33,5.6-.37.17-.85-.05-.97-.46-.15-.44.1-.92.51-1.1,6.4-2.83,10.18-7.67,11.37-10.11.73-1.51,1.1-3.14-1.44-2.75-1.66.27-5.26.54-8.43.51-.41,0-.75-.37-.73-.8,0-.41.34-.75.8-.75,3.24.07,6.55-.2,8.13-.49,3.29-.56,4.7,1.75,3.12,4.97-.58,1.19-1.53,2.63-2.85,4.09,2.58,1.12,5.33,3.53,6.87,5.67.27.41.19.93-.19,1.24Z" fill="#ffbf80" stroke-width="0"/></g></svg>