<?xml version="1.0" encoding="UTF-8"?><svg id="uuid-2484766f-e5ac-4177-932c-e48fe38c9424" xmlns="http://www.w3.org/2000/svg" viewBox="0 0 227.45 132.03"><g id="uuid-c91d5c27-d466-4716-8ee0-c3d40901d718"><g id="uuid-dc0b346b-c7af-4af5-9142-70d6474def98"><path d="M0,94.81h15.28c3,0,5.29.66,6.88,1.98s2.39,2.98,2.39,4.97c0,1.66-.56,3.07-1.66,4.23s-2.78,2.08-5.01,2.75c2.76.58,4.83,1.5,6.21,2.75,1.38,1.24,2.07,2.83,2.07,4.73,0,1.45-.39,2.74-1.18,3.87-.79,1.12-2.1,2.07-3.93,2.85-1.83.78-3.9,1.17-6.23,1.17H0v-1.48h2.42c.73,0,1.26-.12,1.59-.36.34-.24.51-.51.51-.81v-23.48c0-.56-.16-.97-.49-1.26-.33-.28-.81-.43-1.44-.43H0v-1.48h0ZM8.76,108.26h5.55c1.7,0,3.06-.5,4.07-1.51,1.01-1,1.52-2.65,1.52-4.93,0-1.41-.24-2.51-.73-3.3-.48-.79-1.18-1.37-2.1-1.73s-2.51-.54-4.76-.54c-1.59,0-2.59.12-2.97.34-.38.23-.58.64-.58,1.22v10.45ZM8.76,109.75v11.29c0,.52.16.92.47,1.19.31.26.87.39,1.68.39h3.55c2.35,0,4.09-.52,5.21-1.55s1.68-2.65,1.68-4.85c0-2.01-.58-3.59-1.75-4.74-1.16-1.15-2.77-1.73-4.81-1.73h-6.03Z" fill="#fff" stroke-width="0"/><path d="M37.47,104.99c2.5,0,4.59.9,6.29,2.71,1.7,1.8,2.55,4.18,2.55,7.12,0,2.03-.38,3.77-1.14,5.2-.76,1.44-1.84,2.56-3.24,3.4-1.41.83-2.92,1.25-4.54,1.25-2.41,0-4.44-.91-6.11-2.74s-2.51-4.19-2.51-7.09.84-5.29,2.52-7.12c1.68-1.82,3.74-2.74,6.2-2.74h0ZM37.47,106.4c-1.48,0-2.69.67-3.64,2.01-.95,1.34-1.43,3.46-1.43,6.35s.47,5.1,1.42,6.46c.94,1.36,2.17,2.04,3.66,2.04s2.8-.68,3.75-2.04,1.44-3.58,1.44-6.68c0-2.87-.47-4.94-1.42-6.22-.94-1.29-2.2-1.92-3.77-1.92h0Z" fill="#fff" stroke-width="0"/><path d="M55.35,105.21v12.31c0,1.51.38,2.67,1.13,3.49s1.74,1.23,2.94,1.23c1.48,0,2.73-.6,3.77-1.79,1.03-1.2,1.55-2.69,1.55-4.49v-6.95c0-.64-.23-1.13-.68-1.48-.46-.35-1.33-.54-2.63-.58v-1.38l6.52-.34v15.23c0,.7.2,1.24.59,1.62.4.38.96.56,1.66.56h1.17v1.33l-6.24.14-.4-3.64c-1.11,1.31-2.22,2.29-3.34,2.95-1.12.66-2.25.99-3.4.99-1.67,0-3.08-.56-4.21-1.68-1.15-1.11-1.72-2.99-1.72-5.64v-8.06c0-.71-.28-1.26-.85-1.63-.4-.26-1.21-.41-2.44-.44v-1.38l6.58-.34h0Z" fill="#fff" stroke-width="0"/><path d="M80.8,94.47v26.91c0,.37.11.65.34.85.33.26.74.39,1.21.39h1.97v1.48h-10.52v-1.48h1.86c.6,0,1.06-.14,1.35-.43s.45-.7.45-1.23v-22.59c0-.66-.18-1.14-.54-1.45-.49-.42-1.09-.63-1.8-.63h-1.66v-1.48l7.35-.34h0Z" fill="#fff" stroke-width="0"/><path d="M106.18,122.07l.71,1.11c-.96.99-2.03,1.48-3.21,1.48-.89,0-1.65-.25-2.27-.74-.61-.49-1.15-1.35-1.62-2.58-1.25,1.32-2.36,2.2-3.31,2.65-.95.44-2.1.66-3.43.66-1.9,0-3.35-.41-4.34-1.23-.99-.82-1.48-1.87-1.48-3.15,0-1.93,1.13-3.53,3.4-4.81s5.28-2.12,9.05-2.55v-2.81c0-1-.4-1.86-1.21-2.57-.8-.71-1.83-1.07-3.07-1.07-1.15,0-2.14.23-2.97.71-.59.36-.89.71-.89,1.05,0,.2.16.51.47.93.38.53.57,1,.57,1.4,0,.6-.19,1.08-.57,1.46-.38.38-.88.56-1.51.56-.66,0-1.21-.22-1.65-.67-.45-.45-.66-1.02-.66-1.73,0-1.31.74-2.5,2.21-3.59,1.48-1.08,3.41-1.62,5.8-1.62,2.21,0,3.89.47,5.05,1.43,1.16.96,1.75,2.13,1.75,3.51v10.15c0,.89.14,1.56.44,1.98.29.44.67.65,1.13.65.52,0,1.06-.21,1.63-.63l-.02.02ZM99.68,114.24c-3.35.46-5.73,1.22-7.14,2.25-1.04.8-1.57,1.92-1.57,3.37,0,1.02.27,1.81.81,2.39s1.25.86,2.12.86c1.55,0,2.91-.59,4.05-1.77s1.72-2.67,1.72-4.45v-2.66h0Z" fill="#fff" stroke-width="0"/><path d="M109.13,105.55l6.16-.38c.25,1.16.44,2.52.56,4.08.83-1.35,1.81-2.36,2.94-3.03,1.13-.67,2.41-1.01,3.83-1.01,1.23,0,2.25.25,3.09.73.83.48,1.5,1.24,2,2.29.5,1.04.75,2.21.75,3.51v9.03c0,.67.15,1.15.45,1.44.3.28.81.43,1.53.43h1.31v1.48h-9.79v-1.48h.93c.87,0,1.48-.14,1.82-.41.34-.27.52-.69.52-1.24v-7.95c0-1.73-.27-3.01-.79-3.84-.74-1.19-1.86-1.78-3.37-1.78s-2.74.6-3.74,1.8c-1,1.2-1.49,2.77-1.49,4.7v6.87c0,.67.16,1.15.47,1.44.31.28.82.43,1.53.43h1.29v1.48h-9.82v-1.48h1.29c.65,0,1.14-.13,1.48-.39.34-.27.51-.6.51-.99v-11.98c0-.8-.21-1.4-.65-1.81-.43-.41-1.04-.61-1.85-.61h-.96v-1.31Z" fill="#fff" stroke-width="0"/><path d="M148.14,106.6c1.32-1.33,2.53-2,3.64-2,.66,0,1.21.21,1.64.63.43.42.65.93.65,1.55,0,.49-.14.89-.44,1.22s-.65.49-1.04.49c-.76,0-1.26-.46-1.53-1.39-.11-.4-.28-.59-.54-.59-.45,0-.93.3-1.46.89.57.78.96,1.46,1.17,2.03.21.57.32,1.19.32,1.85,0,1.15-.27,2.17-.83,3.04-.56.88-1.48,1.66-2.76,2.33-1.29.67-2.52,1.01-3.7,1.01h-2.16c-1.53,0-2.55.16-3.05.48-.5.33-.75.81-.75,1.44,0,.52.21.91.61,1.19.41.27,1.18.42,2.32.42l4.89-.1c2.47,0,4.25.41,5.33,1.24,1.09.83,1.64,1.96,1.64,3.4,0,1.59-.62,2.92-1.86,4-1.73,1.53-4.31,2.3-7.74,2.3-2.84,0-4.95-.52-6.32-1.57-1.09-.82-1.62-1.74-1.62-2.76,0-.78.34-1.49,1.04-2.14s1.86-1.13,3.49-1.45c-1.31-.32-2.29-.78-2.95-1.4-.66-.61-.99-1.37-.99-2.29,0-.85.27-1.58.8-2.21s1.46-1.16,2.78-1.62c-1.13-.62-1.97-1.37-2.54-2.25s-.85-1.88-.85-3.02c0-1.79.7-3.3,2.12-4.52s3.25-1.83,5.51-1.83c.92,0,1.81.13,2.67.4.86.26,1.69.67,2.5,1.21h.01ZM144.1,124.13c-2.43,0-4.17.34-5.2,1.01-1.04.67-1.55,1.48-1.55,2.43s.38,1.61,1.17,2.12c1.03.69,2.5,1.03,4.4,1.03,2.28,0,3.98-.37,5.13-1.13,1.15-.76,1.73-1.59,1.73-2.52,0-.54-.18-1.05-.54-1.51-.36-.47-.93-.82-1.7-1.07-.78-.25-1.92-.36-3.43-.36ZM142.93,106.26c-1.18,0-2.15.43-2.91,1.3s-1.15,2.08-1.15,3.64c0,1.66.38,2.96,1.15,3.87.77.91,1.75,1.37,2.94,1.37s2.16-.44,2.92-1.33c.76-.89,1.14-2.17,1.14-3.84,0-1.54-.38-2.76-1.16-3.66-.77-.89-1.75-1.35-2.92-1.35h0Z" fill="#fff" stroke-width="0"/><path d="M173.12,114.96h-13.3c.07,2.83.59,4.82,1.59,5.98,1.13,1.31,2.58,1.97,4.34,1.97,2.58,0,4.67-1.47,6.24-4.42l1.29.56c-1.93,3.75-4.72,5.62-8.36,5.62-2.48,0-4.57-.89-6.27-2.69-1.7-1.79-2.54-4.1-2.54-6.9,0-3.01.83-5.44,2.51-7.3,1.67-1.85,3.73-2.78,6.17-2.78,1.79,0,3.35.47,4.66,1.39,1.31.93,2.29,2.25,2.95,3.98.46,1.22.71,2.75.74,4.6h-.01ZM159.83,113.55h8.04c.47,0,.85-.16,1.11-.48.27-.32.4-.88.4-1.66,0-1.45-.45-2.69-1.35-3.71-.91-1.02-1.97-1.53-3.2-1.53-1.37,0-2.54.61-3.5,1.84s-1.45,3.07-1.5,5.53h0Z" fill="#fff" stroke-width="0"/><path d="M175.7,105.55l6.68-.34v7.51c.71-2.47,1.57-4.34,2.58-5.61s2.24-1.9,3.73-1.9c1,0,1.81.31,2.41.92s.9,1.44.9,2.47c0,.83-.2,1.48-.6,1.94-.4.46-.91.69-1.52.69s-1.07-.2-1.44-.6-.54-.93-.54-1.6c0-.44.1-.85.32-1.23.2-.34.3-.55.3-.62,0-.2-.12-.3-.38-.3-.54,0-1.15.32-1.84.95-.95.88-1.68,2.1-2.2,3.64-.79,2.41-1.19,4.32-1.19,5.77v3.98c0,.45.16.79.47,1.03s.86.36,1.62.36h2.36v1.48h-11.53v-1.48h1.84c.62,0,1.09-.12,1.41-.36s.47-.54.47-.88v-11.82c0-.9-.19-1.55-.58-1.97-.38-.42-.93-.63-1.64-.63h-1.63v-1.41h.01Z" fill="#fff" stroke-width="0"/><path d="M193.64,105.55l7.39-.22v15.97c0,.43.1.75.32.93.3.26.69.39,1.15.39h2.1v1.48h-10.56v-1.48h1.96c.58,0,1.01-.14,1.28-.43.27-.28.41-.7.41-1.24v-11.69c0-.74-.21-1.3-.64-1.67-.42-.38-1.05-.56-1.88-.56h-1.53v-1.48h.01ZM198.8,94.47c.6,0,1.11.23,1.57.67.45.45.67.98.67,1.59s-.22,1.11-.65,1.55c-.44.44-.96.65-1.57.65s-1.13-.22-1.57-.66-.66-.96-.66-1.55.22-1.11.67-1.57.97-.67,1.55-.67h0Z" fill="#fff" stroke-width="0"/><path d="M224.2,114.96h-13.3c.07,2.83.59,4.82,1.58,5.98,1.14,1.31,2.58,1.97,4.34,1.97,2.59,0,4.67-1.47,6.24-4.42l1.29.56c-1.93,3.75-4.72,5.62-8.36,5.62-2.48,0-4.57-.89-6.27-2.69-1.7-1.79-2.54-4.1-2.54-6.9,0-3.01.83-5.44,2.5-7.3,1.67-1.85,3.73-2.78,6.17-2.78,1.79,0,3.35.47,4.66,1.39,1.31.93,2.29,2.25,2.95,3.98.46,1.22.71,2.75.74,4.6h0ZM210.91,113.55h8.04c.47,0,.85-.16,1.11-.48.27-.32.4-.88.4-1.66,0-1.45-.45-2.69-1.35-3.71-.91-1.02-1.97-1.53-3.2-1.53-1.37,0-2.54.61-3.5,1.84s-1.45,3.07-1.49,5.53h0Z" fill="#fff" stroke-width="0"/><path d="M.08,1.59h32.52v3.86h-5.97c-2.09,0-3.45.36-4.09,1.1-.63.74-.96,2.53-.96,5.38v23.46h34.79V11.93c0-2.95-.3-4.77-.9-5.46-.6-.69-2.02-1.02-4.24-1.02h-5.56V1.59h32.32v3.86h-5.92c-1.47,0-2.51.19-3.11.56-.6.37-1.09,1.02-1.46,1.95-.21.58-.31,2.11-.31,4.58v54.75c0,2.64.22,4.23.67,4.78.89,1.17,2.52,1.75,4.89,1.75h5.25v3.86h-32.32v-3.86h5.56c2.19,0,3.68-.6,4.47-1.8.45-.65.67-2.36.67-5.14v-26.45H21.59v26.86c0,2.67.21,4.29.62,4.84.85,1.13,2.33,1.7,4.42,1.7h5.97v3.86H.08v-3.86h6.22c1.1,0,1.97-.23,2.63-.67.65-.45,1.13-1.09,1.44-1.9.17-.55.25-2.01.25-4.37V11.93c0-2.85-.32-4.64-.95-5.38-.64-.74-2.01-1.1-4.15-1.1H.08V1.59Z" fill="#fff" stroke-width="0"/><path d="M119.74,0h3.44l27.29,69.61c1.1,2.81,3.35,4.22,6.74,4.22h2.37v3.86h-30.36v-3.86h2.42c3.16,0,5.38-.35,6.69-1.03.89-.48,1.33-1.22,1.33-2.21,0-.58-.12-1.2-.36-1.86l-6.3-16.16h-30.1l-3.54,9.26c-.93,2.47-1.39,4.42-1.39,5.86,0,1.68.78,3.12,2.34,4.32,1.56,1.2,3.84,1.8,6.82,1.8h2.57v3.86h-27.57v-3.86c2.95,0,5.28-.65,7-1.93,1.71-1.29,3.29-3.73,4.73-7.34L119.74,0ZM118.24,14.66l-13.67,33.91h26.88l-13.21-33.91Z" fill="#fff" stroke-width="0"/><path d="M162.31,1.59h35.29v3.86h-8.44c-1.33,0-2.32.35-2.96,1.05-.63.7-.96,1.81-.96,3.32v60.04c0,1.44.41,2.47,1.21,3.07s2.43.9,4.85.9h10.68c5.69,0,10.34-1.9,13.96-5.69,3.61-3.79,6.24-10.37,7.89-19.73h3.6l-1.75,29.27h-63.39v-3.86h6.23c2.12,0,3.62-.41,4.48-1.21.86-.8,1.29-2.1,1.29-3.89V9.31c0-1.27-.36-2.23-1.08-2.88-.71-.65-1.78-.98-3.19-.98h-7.72V1.59h0Z" fill="#fff" stroke-width="0"/></g></g></svg>