<?xml version="1.0" encoding="UTF-8"?><svg id="uuid-f2eb15f4-bae8-45f8-9c9b-52eadc647436" xmlns="http://www.w3.org/2000/svg" viewBox="0 0 190.43 98.63"><g id="uuid-ef33b165-5327-4ad6-94d0-7c2c22742461"><path d="M53.92,82.01c0,1.21-.97,2.12-2.12,2-4.79-.49-6.49-.49-11.28,0-1.09.12-2.06-.79-2.06-2s.97-2.12,2.06-2c1.33.12,2.85.3,4.31.36v-37.06l-14.44,33.6c-.49.97-1.46,1.64-2.49,1.64s-2-.73-2.37-1.64l-13.59-34.09v37.54c1.46-.06,2.97-.24,4.31-.36,1.09-.12,2.06.79,2.06,2s-.97,2.12-2.06,2c-4.79-.49-6.55-.49-11.28,0-1.15.12-2.12-.79-2.12-2s.97-2.12,2.12-2c.91.12,1.94.18,2.97.3v-37.24c-.79.12-1.76.12-2.79.24-1.15.18-2.18-.79-2.18-2s1.03-2.12,2.18-1.94c2.67.36,4.18.48,6.19.48s3.76,1.27,4.49,3.09l12.19,30.93,13.04-30.99c.73-1.76,2.55-3.03,4.55-3.03s3.52-.12,6-.48c1.15-.18,2.18.79,2.18,2s-1.03,2.12-2.18,1.94c-1.09-.18-2.06-.18-2.79-.24v37.24c1.03-.12,2.06-.18,2.97-.3,1.15-.12,2.12.79,2.12,2Z" fill="#fff" stroke-width="0"/><path d="M92.73,75.09l-.36,5.09c-.12,1.82-1.64,3.28-3.4,3.28h-21.47c-1.58,0-3.21.3-4.67.49-1.27.18-2.37-.79-2.37-2.12s1.09-2.24,2.37-2.06c.73.12,1.58.24,2.43.3v-36.88c-.85.06-1.7.18-2.43.36-1.21.18-2.37-.79-2.37-2.06s1.09-2.3,2.37-2.12c1.58.18,3.46.48,5.03.48h21.11c1.76,0,3.27,1.46,3.4,3.28l.36,5.1c.12,1.21-.91,2.24-2.12,2.24s-2.25-1.03-2.12-2.24c.06-1.4.18-2.91.36-4.43h-19.59v15.04h16.13c1.09,0,1.94.85,1.94,1.94,0,1.03-.85,1.88-1.94,1.88h-16.13v16.86h19.59c-.18-1.58-.3-3.15-.36-4.43-.12-1.21.91-2.24,2.12-2.24s2.24,1.03,2.12,2.24Z" fill="#fff" stroke-width="0"/><path d="M142.71,41.31c0,1.15-.97,2.12-2.06,2-.91-.12-2-.18-3.03-.3v38.15c0,1.21-.79,2.24-1.94,2.43-1.21.24-2.49-.3-3.21-1.33l-23.17-35.6v33.72c1.46-.06,3.03-.24,4.31-.36,1.15-.12,2.12.79,2.12,2s-.97,2.12-2.12,2c-4.73-.49-6.49-.49-11.28,0-1.09.12-2.06-.85-2.06-2s.97-2.12,2.06-2c.91.12,2,.18,3.03.3v-37.06c-.91.12-1.82.24-2.67.42-1.27.18-2.43-.85-2.43-2.18s1.15-2.3,2.43-2.12c1.03.18,2.18.36,3.34.48,2.24.12,4.19,1.21,5.28,2.85l22.38,34.75v-34.51c-1.46.06-3.03.24-4.31.36-1.15.12-2.12-.79-2.12-2s.97-2.12,2.12-2c4.73.49,6.49.49,11.28,0,1.09-.12,2.06.85,2.06,2Z" fill="#fff" stroke-width="0"/><path d="M188.13,41.31c0,1.21-.97,2.12-2.12,2-1.03-.12-2.24-.24-3.4-.3v24.5c0,10.25-5.64,16.5-14.8,16.5s-14.8-6.31-14.8-16.5v-24.5c-1.15.06-2.37.18-3.4.3-1.15.12-2.12-.79-2.12-2s.97-2.12,2.12-2c4.73.49,6.49.49,11.28,0,1.09-.12,2.06.85,2.06,2s-.97,2.12-2.06,2c-1.21-.12-2.67-.24-4-.3v24.56c0,2.97.61,12.74,10.92,12.74s10.92-9.89,10.92-12.74v-24.56c-1.33.06-2.79.18-4,.3-1.09.12-2.06-.85-2.06-2s.97-2.12,2.06-2c4.79.49,6.55.49,11.28,0,1.15-.12,2.12.79,2.12,2Z" fill="#fff" stroke-width="0"/><path d="M24.34,3.8c.41,0,.73.34.73.73,0,.44-.32.75-.73.75H5.49c-.41,0-.75-.32-.75-.75,0-.39.32-.73.75-.73h8.65v-1.12c0-.44.34-.78.78-.78s.78.34.78.78v1.12h8.64ZM22.51,8.45c.75,0,1.32.58,1.32,1.31v10.4c0,1.88-.97,2.56-3.6,2.44-.41-.02-.75-.39-.73-.83.05-.41.39-.75.83-.73,1.68.07,2-.02,2-.88v-10.2h-4.94v1.97c0,1,.39,1.24,1.88,1.24h1.66c.39,0,.71.34.71.73s-.32.71-.71.71h-2.24c-1.73,0-2.75-1-2.75-2.68v-1.97h-2.05c-.32,2.29-2.12,4.5-4.65,5.67-.37.17-.8-.05-.95-.44-.15-.39.05-.83.46-1.02,1.92-.9,3.21-2.41,3.58-4.19v-.02h-4.75v11.96c0,.41-.32.75-.75.75-.41,0-.75-.32-.75-.75v-12.15c0-.73.58-1.31,1.32-1.31h4.31c-.29-.68-.68-1.36-1.14-1.95-.27-.32-.17-.78.17-.95.49-.24,1.02-.1,1.29.32.41.68.9,1.63,1.27,2.58h2.92c.78-.71,1.51-1.58,2-2.58.2-.37.61-.54.97-.37.37.2.54.66.34,1-.37.73-.78,1.36-1.24,1.95h4.26ZM17.62,15.42c.66,0,1.19.51,1.19,1.19v3.41c0,.66-.54,1.19-1.19,1.19h-5.41c-.66,0-1.19-.56-1.19-1.19v-3.41c0-.68.54-1.19,1.19-1.19h5.41ZM17.32,19.77v-2.95h-4.82v2.95h4.82Z" fill="#ffbf80" stroke-width="0"/><path d="M31.06,22.31c-.75,0-1.32-.58-1.32-1.32v-6.45c0-.73.58-1.32,1.32-1.32h5.77c.73,0,1.31.61,1.31,1.32v6.45c0,.73-.61,1.32-1.31,1.32h-5.77ZM31.23,20.85h5.43v-6.14h-5.43v6.14ZM34.64,10.4c-.73,0-1.31-.58-1.31-1.32V3.97c0-.73.61-1.32,1.31-1.32h9.25c.73,0,1.31.61,1.31,1.32v5.11c0,.75-.61,1.32-1.31,1.32h-9.25ZM34.86,8.94h8.82v-4.82h-8.82v4.82ZM41.7,22.31c-.73,0-1.31-.58-1.31-1.32v-6.45c0-.73.58-1.32,1.31-1.32h5.8c.73,0,1.32.61,1.32,1.32v6.45c0,.73-.58,1.32-1.32,1.32h-5.8ZM41.87,20.85h5.46v-6.14h-5.46v6.14Z" fill="#ffbf80" stroke-width="0"/><path d="M55.8,6.94c-.1,1.27-.39,2.9-.97,4.24-.15.39-.58.58-1,.44-.34-.1-.51-.49-.37-.83.51-1.19.8-2.46.93-3.97.02-.39.37-.68.73-.66.41.05.71.39.68.78ZM57.72,2.78v19.17c0,.41-.32.75-.73.75s-.75-.34-.75-.75V2.78c0-.41.34-.75.75-.75s.73.34.73.75ZM59.5,9.28c-.34.12-.73-.1-.78-.46-.17-1.05-.44-1.95-.71-2.68-.12-.37.07-.75.44-.85.41-.1.83.12.95.51.24.73.46,1.66.66,2.51.1.41-.15.83-.56.97ZM72.94,9.38c.37,0,.68.29.68.68,0,.37-.29.68-.68.68h-12.54c-.39,0-.68-.32-.68-.68s.29-.68.68-.68h5.5v-1.51h-3.68c-.39,0-.68-.32-.68-.68s.29-.68.68-.68h3.68v-1.51h-4.6c-.39,0-.68-.32-.68-.68,0-.39.32-.68.68-.68h4.6v-.83c0-.44.34-.78.78-.78.41,0,.75.34.75.78v.83h4.58c.37,0,.68.29.68.68,0,.37-.29.68-.68.68h-4.58v1.51h3.65c.37,0,.68.29.68.68,0,.37-.29.68-.68.68h-3.65v1.51h5.5ZM70.19,12c.75,0,1.32.58,1.32,1.32v6.82c0,1.88-.68,2.53-2.63,2.53-.44,0-.8-.37-.78-.83,0-.41.37-.73.8-.71.93.07,1.1-.1,1.1-1v-.83h-6.65v2.58c0,.41-.32.78-.75.78-.41,0-.75-.34-.75-.78v-8.57c0-.73.58-1.32,1.31-1.32h7.04ZM70,13.44h-6.65v1.53h6.65v-1.53ZM63.35,17.9h6.65v-1.53h-6.65v1.53Z" fill="#ffbf80" stroke-width="0"/><path d="M86.99,13.52c.41,0,.73.34.73.73,0,.41-.34.73-.73.73h-3.46v2.44h2.78c.39,0,.73.32.73.73s-.34.73-.73.73h-2.78v3.04c0,.44-.34.75-.75.75-.44,0-.75-.34-.75-.75v-3.04h-2.78c-.41,0-.73-.32-.73-.73s.32-.73.73-.73h2.78v-2.44h-3.46c-.41,0-.73-.32-.73-.73,0-.39.32-.73.73-.73h4.04c.66-.78,1.34-2.02,1.78-3.21.15-.41.56-.61.93-.49.44.15.63.58.51.97-.29.8-.8,1.85-1.36,2.73h2.53ZM78.69,9.4c-.41,0-.73-.34-.73-.75,0-.39.32-.73.73-.73h3.34v-2.22h-2.43c-.39,0-.73-.32-.73-.73s.32-.73.73-.73h2.43v-1.61c0-.41.34-.73.75-.73s.75.34.75.73v1.61h2.41c.44,0,.75.32.75.73s-.34.73-.75.73h-2.41v2.22h3.34c.41,0,.73.34.73.73,0,.44-.34.75-.73.75h-8.18ZM81.03,10.25c.32.61.63,1.27.88,1.83.15.37,0,.8-.39,1-.29.17-.71.02-.85-.32-.27-.58-.61-1.22-.95-1.78-.24-.34-.12-.83.22-1.02.39-.22.88-.1,1.1.29ZM98.37,22.28c-.1.34-.49.51-.8.34-1.02-.61-2.22-1.7-3.31-3.07-.95,1.24-2,2.26-3.09,3-.32.22-.75.07-.9-.32-.17-.39-.02-.88.34-1.14,1.1-.78,2-1.73,2.73-2.78-1.05-1.53-1.9-3.29-2.31-5.11-.07-.39.15-.78.56-.88.37-.07.73.15.83.54.32,1.36.95,2.8,1.75,4.12,1.02-1.85,1.58-3.8,1.85-5.26h-6.11v10.2c0,.44-.34.75-.73.75-.41,0-.75-.32-.75-.75V3.94c0-.73.58-1.32,1.32-1.32h6.67c.71,0,1.27.61,1.19,1.32-.1.88-.19,1.95-.32,2.95-.17,1.53-1.39,2.46-3.19,2.43-.44-.02-.75-.46-.66-.95.07-.39.49-.68,1-.66.8.05,1.29-.32,1.36-1,.1-.85.19-1.8.27-2.61h-6.16v6.16h6.45c.71,0,1.27.61,1.17,1.29-.34,2.48-1.24,4.82-2.44,6.77.85,1.14,1.85,2.14,2.9,2.85.37.24.54.71.39,1.1Z" fill="#ffbf80" stroke-width="0"/></g></svg>