<?xml version="1.0" encoding="UTF-8"?><svg id="uuid-7a5e75f4-b7a6-494a-91ca-974299286200" xmlns="http://www.w3.org/2000/svg" viewBox="0 0 186.13 98.22"><g id="uuid-04b7e499-18e3-4da2-a377-d80f894cf3cf"><path d="M45.73,40.9c0,1.15-.97,2.12-2.06,2-.91-.12-2-.18-3.03-.3v38.15c0,1.21-.79,2.24-1.94,2.43-1.21.24-2.49-.3-3.21-1.33L12.31,46.24v33.72c1.46-.06,3.03-.24,4.31-.36,1.15-.12,2.12.79,2.12,2s-.97,2.12-2.12,2c-4.73-.49-6.49-.49-11.28,0-1.09.12-2.06-.85-2.06-2s.97-2.12,2.06-2c.91.12,2,.18,3.03.3v-37.06c-.91.12-1.82.24-2.67.42-1.27.18-2.43-.85-2.43-2.18s1.15-2.3,2.43-2.12c1.03.18,2.18.36,3.34.48,2.24.12,4.19,1.21,5.28,2.85l22.38,34.75v-34.51c-1.46.06-3.03.24-4.31.36-1.15.12-2.12-.79-2.12-2s.97-2.12,2.12-2c4.73.49,6.49.49,11.28,0,1.09-.12,2.06.85,2.06,2Z" fill="#fff" stroke-width="0"/><path d="M83.76,74.68l-.36,5.1c-.12,1.82-1.64,3.28-3.4,3.28h-21.47c-1.58,0-3.21.3-4.67.48-1.27.18-2.37-.79-2.37-2.12s1.09-2.24,2.37-2.06c.73.12,1.58.24,2.43.3v-36.88c-.85.06-1.7.18-2.43.36-1.21.18-2.37-.79-2.37-2.06s1.09-2.3,2.37-2.12c1.58.18,3.46.48,5.03.48h21.11c1.76,0,3.27,1.46,3.4,3.28l.36,5.1c.12,1.21-.91,2.24-2.12,2.24s-2.24-1.03-2.12-2.24c.06-1.4.18-2.91.36-4.43h-19.59v15.04h16.13c1.09,0,1.94.85,1.94,1.94,0,1.03-.85,1.88-1.94,1.88h-16.13v16.86h19.59c-.18-1.58-.3-3.15-.36-4.43-.12-1.21.91-2.24,2.12-2.24s2.24,1.03,2.12,2.24Z" fill="#fff" stroke-width="0"/><path d="M147.62,40.9c0,1.15-.97,2.12-2.06,2-.91-.12-1.94-.18-2.97-.24l-9.95,39c-.3,1.15-1.27,1.94-2.37,1.94s-2.12-.79-2.37-1.82l-9.4-36.09-9.28,35.97c-.3,1.15-1.27,1.94-2.43,1.94s-2.12-.79-2.43-1.94l-9.89-39.06c-1.09.12-2.12.18-3.03.3-1.09.12-2.06-.85-2.06-2s.97-2.12,2.06-2c4.79.49,6.55.49,11.34,0,1.09-.12,2.06.85,2.06,2s-.97,2.12-2.06,2c-1.4-.18-3.09-.3-4.61-.36q.06.06.06.12l8.55,34.15,9.22-35.12c.3-1.15,1.33-2,2.49-2s2.18.85,2.49,2l9.22,35.18,8.55-34.27v-.06c-1.52.06-3.15.18-4.55.36-1.09.12-2.06-.85-2.06-2s.97-2.12,2.06-2c4.79.49,6.55.49,11.34,0,1.09-.12,2.06.85,2.06,2Z" fill="#fff" stroke-width="0"/><path d="M182.37,71.41c0,7.04-6.19,12.19-14.5,12.19-5.82,0-10.86-2.12-14.13-6.07-2.55-2.85-1.52-6.43,1.94-6.67,2.73-.12,4.37,3.03,2.49,5.58,6.73,6.31,20.2,2.91,20.2-5.03,0-10.86-24.56-6.25-23.41-21.53,1.15-16.07,26.93-12.19,26.87-4.12-.06,1.88-1.58,3.4-3.4,3.4-2.73,0-4.25-3.21-2.79-5.03-2.3-1.64-15.89-3.88-16.74,6.07-.91,11.52,23.47,6.19,23.47,21.23Z" fill="#fff" stroke-width="0"/><path d="M14.87,15.07h-3.34c.93.83,2.26,2.34,2.9,3.38.19.34.05.78-.34.97-.32.19-.73.07-.93-.29-.41-.73-1.12-1.61-1.85-2.36v5.16c0,.41-.34.76-.73.76-.41,0-.75-.34-.75-.76v-4.58c-1.05,1.49-2.51,3.02-3.8,3.97-.32.22-.75.12-.93-.24-.19-.37-.07-.83.27-1.12,1.9-1.49,3.31-3.46,4.07-4.9h-3.39c-.39,0-.73-.32-.73-.73s.34-.73.73-.73h3.77v-1c0-.44.34-.75.75-.75s.73.34.73.75v1h3.56c.41,0,.73.34.73.73,0,.41-.34.73-.73.73ZM6.13,11.35c-.39,0-.68-.32-.68-.68,0-.41.32-.71.68-.71h4.46c.78-.93,1.39-2,1.88-3.41.12-.39.56-.61.95-.49s.61.54.46.93c-.41,1.12-.93,2.14-1.46,2.97h2.61c.37,0,.68.29.68.71,0,.37-.29.68-.68.68H6.13ZM6.59,5.67c-.41,0-.71-.32-.71-.71s.32-.71.71-.71h3.21v-1.75c0-.41.34-.75.78-.75.41,0,.75.34.75.75v1.75h3.21c.41,0,.71.32.71.71s-.32.71-.71.71h-7.96ZM8.66,6.45c.46.71.88,1.44,1.19,2.09.17.32,0,.73-.34.9-.34.17-.75.02-.93-.34-.34-.66-.78-1.34-1.24-1.95-.22-.32-.12-.75.19-.95.39-.22.88-.12,1.12.24ZM24.88,9.55c.44,0,.76.34.76.75,0,.44-.34.75-.76.75h-1.85v10.84c0,.46-.34.8-.78.8-.41,0-.78-.34-.78-.8v-10.84h-3.68c0,4.97-.15,8.26-1.19,10.93-.17.44-.66.68-1.14.58-.39-.1-.58-.54-.41-.9,1-2.31,1.19-5.36,1.19-11.37v-4.29c0-.73.56-1.36,1.34-1.49,2.46-.34,5.02-1,7.09-1.83.41-.17.85.05.97.46.15.46-.1.95-.56,1.12-2.14.78-4.94,1.49-7.28,1.8v3.46h7.09Z" fill="#ffbf80" stroke-width="0"/><path d="M49.04,9.81c.41,0,.71.32.71.71s-.32.71-.71.71h-11.93c-.15.58-.34,1.14-.58,1.71.07-.02.17-.02.27-.02h9.28c.73,0,1.31.58,1.31,1.31v6.96c0,.73-.58,1.31-1.31,1.31h-9.28c-.73,0-1.31-.58-1.31-1.31v-6.33c-1.31,2.05-3.07,3.77-4.58,4.9-.32.22-.8.12-1-.24-.22-.37-.1-.85.27-1.12,2.53-1.9,4.7-4.94,5.38-7.16h-4.87c-.41,0-.71-.32-.71-.71s.32-.71.71-.71h8.38v-1.56h-6.53c-.39,0-.71-.29-.71-.71,0-.37.29-.68.71-.68h6.53v-1.56h-7.5c-.39,0-.71-.32-.71-.71s.32-.71.71-.71h5.04c-.17-.32-.39-.61-.68-.93-.29-.29-.27-.75.05-.97.41-.32.95-.27,1.22.1.41.54.8,1.14,1.1,1.8h3.07c.56-.54,1.07-1.19,1.46-1.78.24-.39.71-.54,1.12-.39.39.15.56.61.37.93-.24.41-.54.83-.88,1.24h4.72c.39,0,.71.32.71.71s-.29.71-.71.71h-7.48v1.56h6.53c.39,0,.71.29.71.68,0,.41-.32.71-.71.71h-6.53v1.56h8.38ZM45.87,14.34h-8.91v1.34h8.91v-1.34ZM45.87,18.39v-1.36h-8.91v1.36h8.91ZM36.96,21.06h8.91v-1.36h-8.91v1.36Z" fill="#ffbf80" stroke-width="0"/><path d="M56.39,6.94c-.1,1.27-.39,2.9-.97,4.24-.15.39-.58.58-1,.44-.34-.1-.51-.49-.37-.83.51-1.19.8-2.46.93-3.97.02-.39.37-.68.73-.66.41.05.71.39.68.78ZM58.32,2.78v19.17c0,.41-.32.76-.73.76s-.75-.34-.75-.76V2.78c0-.41.34-.75.75-.75s.73.34.73.75ZM60.09,9.28c-.34.12-.73-.1-.78-.46-.17-1.05-.44-1.95-.71-2.68-.12-.37.07-.75.44-.85.41-.1.83.12.95.51.24.73.46,1.66.66,2.51.1.41-.15.83-.56.97ZM73.54,9.38c.37,0,.68.29.68.68,0,.37-.29.68-.68.68h-12.54c-.39,0-.68-.32-.68-.68s.29-.68.68-.68h5.5v-1.51h-3.68c-.39,0-.68-.32-.68-.68s.29-.68.68-.68h3.68v-1.51h-4.6c-.39,0-.68-.32-.68-.68,0-.39.32-.68.68-.68h4.6v-.83c0-.44.34-.78.78-.78.41,0,.75.34.75.78v.83h4.58c.37,0,.68.29.68.68,0,.37-.29.68-.68.68h-4.58v1.51h3.65c.37,0,.68.29.68.68,0,.37-.29.68-.68.68h-3.65v1.51h5.5ZM70.78,12c.75,0,1.31.58,1.31,1.32v6.82c0,1.88-.68,2.53-2.63,2.53-.44,0-.8-.37-.78-.83,0-.41.37-.73.8-.71.93.07,1.1-.1,1.1-1v-.83h-6.65v2.58c0,.41-.32.78-.75.78-.41,0-.75-.34-.75-.78v-8.57c0-.73.58-1.32,1.31-1.32h7.04ZM70.59,13.44h-6.65v1.53h6.65v-1.53ZM63.94,17.9h6.65v-1.53h-6.65v1.53Z" fill="#ffbf80" stroke-width="0"/><path d="M87.59,13.52c.41,0,.73.34.73.73,0,.41-.34.73-.73.73h-3.46v2.44h2.78c.39,0,.73.32.73.73s-.34.73-.73.73h-2.78v3.04c0,.44-.34.75-.75.75-.44,0-.75-.34-.75-.75v-3.04h-2.78c-.41,0-.73-.32-.73-.73s.32-.73.73-.73h2.78v-2.44h-3.46c-.41,0-.73-.32-.73-.73,0-.39.32-.73.73-.73h4.04c.66-.78,1.34-2.02,1.78-3.21.15-.41.56-.61.93-.49.44.15.63.58.51.97-.29.8-.8,1.85-1.36,2.73h2.53ZM79.28,9.4c-.41,0-.73-.34-.73-.75,0-.39.32-.73.73-.73h3.34v-2.22h-2.44c-.39,0-.73-.32-.73-.73s.32-.73.73-.73h2.44v-1.61c0-.41.34-.73.75-.73s.75.34.75.73v1.61h2.41c.44,0,.75.32.75.73s-.34.73-.75.73h-2.41v2.22h3.34c.41,0,.73.34.73.73,0,.44-.34.75-.73.75h-8.18ZM81.62,10.25c.32.61.63,1.27.88,1.83.15.37,0,.8-.39,1-.29.17-.71.02-.85-.32-.27-.58-.61-1.22-.95-1.78-.24-.34-.12-.83.22-1.02.39-.22.88-.1,1.1.29ZM98.96,22.28c-.1.34-.49.51-.8.34-1.02-.61-2.22-1.7-3.31-3.07-.95,1.24-2,2.26-3.09,3-.32.22-.75.07-.9-.32-.17-.39-.02-.88.34-1.14,1.1-.78,2-1.73,2.73-2.78-1.05-1.53-1.9-3.29-2.31-5.11-.07-.39.15-.78.56-.88.37-.07.73.15.83.54.32,1.36.95,2.8,1.75,4.12,1.02-1.85,1.58-3.8,1.85-5.26h-6.11v10.2c0,.44-.34.75-.73.75-.41,0-.75-.32-.75-.75V3.94c0-.73.58-1.32,1.32-1.32h6.67c.71,0,1.27.61,1.19,1.32-.1.88-.19,1.95-.32,2.95-.17,1.53-1.39,2.46-3.19,2.44-.44-.02-.75-.46-.66-.95.07-.39.49-.68,1-.66.8.05,1.29-.32,1.36-1,.1-.85.19-1.8.27-2.61h-6.16v6.16h6.45c.71,0,1.27.61,1.17,1.29-.34,2.48-1.24,4.82-2.44,6.77.85,1.14,1.85,2.14,2.9,2.85.37.24.54.71.39,1.1Z" fill="#ffbf80" stroke-width="0"/></g></svg>